# xmcd CD database file
#
# Track frame offsets:
#	150
#	19548
#	37661
#	57612
#	76159
#	109465
#	125054
#	142598
#	147498
#	166164
#	181806
#
# Disc length: 2781 seconds
#
# Revision: 1
# Processed by: cddbd v1.5.2PL0 Copyright (c) Steve Scherf et al.
# Submitted via: jetAudio 7
#
DISCID=8b0adb0b
DTITLE=Jeff Cascaro - Soul of a singer
DYEAR=1900
DGENRE=Jazz
TTITLE0=Holler
TTITLE1=I'm talking to you baby
TTITLE2=Tripping out
TTITLE3=Waiting
TTITLE4=I'll be fine
TTITLE5=Soul of a singer
TTITLE6=Summerlove
TTITLE7=Time
TTITLE8=Do you believe
TTITLE9=Under the same sun
TTITLE10=Love will find a way
EXTD=
EXTT0=
EXTT1=
EXTT2=
EXTT3=
EXTT4=
EXTT5=
EXTT6=
EXTT7=
EXTT8=
EXTT9=
EXTT10=
PLAYORDER=
